<svg xmlns="http://www.w3.org/2000/svg" width="15.25" height="13.556" viewBox="0 0 15.25 13.556">
  <path id="Icon_awesome-shopping-cart" data-name="Icon awesome-shopping-cart" d="M13.982,7.978l1.252-5.507a.635.635,0,0,0-.62-.776H4.215L3.972.508A.635.635,0,0,0,3.35,0H.635A.635.635,0,0,0,0,.635v.424a.635.635,0,0,0,.635.635h1.85l1.86,9.093a1.483,1.483,0,1,0,1.775.227h5.551a1.482,1.482,0,1,0,1.684-.275L13.5,10.1a.635.635,0,0,0-.62-.776H5.775L5.6,8.472h7.761A.635.635,0,0,0,13.982,7.978Z" fill="#fff"/>
</svg>
