<svg width="200" height="200" viewBox="0 0 200 200" fill="none" xmlns="http://www.w3.org/2000/svg">
<path d="M11.7788 31.5068H18.5356C19.8748 31.7503 20.5444 32.4199 20.5444 33.5156V92.2271H42.915C45.4717 92.4097 46.75 93.0793 46.75 94.2358V102.362C46.75 103.641 45.4717 104.28 42.915 104.28H20.5444V162.991C20.5444 164.33 19.8748 165 18.5356 165H11.7788C10.4396 165 9.77002 164.33 9.77002 162.991V33.5156C10.0135 32.1764 10.6831 31.5068 11.7788 31.5068ZM92.5869 31.5068H99.3438C100.683 31.7503 101.353 32.4199 101.353 33.5156V162.991C101.353 164.33 100.683 165 99.3438 165H92.5869C91.2477 165 90.5781 164.33 90.5781 162.991V104.28H68.2075C66.8683 104.28 66.1987 103.641 66.1987 102.362V94.2358C66.4422 92.8966 67.1118 92.2271 68.2075 92.2271H90.5781V33.5156C90.8216 32.1764 91.4912 31.5068 92.5869 31.5068ZM121.897 31.3242H128.836C130.176 31.5068 130.845 32.1764 130.845 33.333V153.769H185.356C186.696 154.073 187.365 154.773 187.365 155.869V162.991C187.365 164.33 186.696 165 185.356 165H121.897C120.558 165 119.888 164.33 119.888 162.991V33.333C120.071 31.9938 120.74 31.3242 121.897 31.3242Z" fill="white"/>
</svg>
