<svg xmlns="http://www.w3.org/2000/svg" width="98.75" height="98.75" viewBox="0 0 98.75 98.75">
  <path id="Icon_awesome-plus" data-name="Icon awesome-plus" d="M91.7,41.045H59.955V9.3A7.054,7.054,0,0,0,52.9,2.25H45.848A7.054,7.054,0,0,0,38.795,9.3V41.045H7.054A7.054,7.054,0,0,0,0,48.1v7.054a7.054,7.054,0,0,0,7.054,7.054H38.795V93.946A7.054,7.054,0,0,0,45.848,101H52.9a7.054,7.054,0,0,0,7.054-7.054V62.205H91.7a7.054,7.054,0,0,0,7.054-7.054V48.1A7.054,7.054,0,0,0,91.7,41.045Z" transform="translate(0 -2.25)" fill="#fff"/>
</svg>
