<svg xmlns="http://www.w3.org/2000/svg" width="48" height="36" viewBox="0 0 48 36">
  <path id="Icon_awesome-hand-point-right" data-name="Icon awesome-hand-point-right" d="M48,17.217a4.228,4.228,0,0,1-4.2,4.109H34.439a4.611,4.611,0,0,1-.591,6.651,4.294,4.294,0,0,1-1.542,5.842c.841,4.607-2.057,6.681-6.806,6.681-.257,0-1.245-.019-1.5-.018-5.81.016-7.209-2.912-11.6-3.592a2.247,2.247,0,0,1-1.9-2.222V18.587h0a4.5,4.5,0,0,1,2.668-4.11c2.708-1.218,8.945-4.6,10.081-7.249A4,4,0,0,1,27,4.5a4.5,4.5,0,0,1,4.136,6.273,12.742,12.742,0,0,1-1.327,2.336H43.8A4.3,4.3,0,0,1,48,17.217ZM9,17.25v18A2.25,2.25,0,0,1,6.75,37.5H2.25A2.25,2.25,0,0,1,0,35.25v-18A2.25,2.25,0,0,1,2.25,15h4.5A2.25,2.25,0,0,1,9,17.25ZM6.375,33A1.875,1.875,0,1,0,4.5,34.875,1.875,1.875,0,0,0,6.375,33Z" transform="translate(0 -4.5)"/>
</svg>
