<svg width="1863" height="529" viewBox="0 0 1863 529" fill="none" xmlns="http://www.w3.org/2000/svg">
<g clip-path="url(#clip0_45_2)">
<path opacity="0.7" d="M1858.08 373.29C1858.08 373.29 1745.71 368.581 1676.36 357.292C1634.05 351.541 1558.91 339.066 1463.98 335.182C1359.09 330.328 1225.6 399.351 1062.59 399.351C806.973 396.174 622.203 285.179 445.892 287.122C269.581 289.064 41.5448 411.973 23.4782 411.427C5.41149 410.882 -0.144891 400.25 0.131042 390.162C0.406975 380.075 2.6065 264.501 2.6065 264.501H1858.08V373.29Z" fill="url(#paint0_linear_45_2)"/>
<path opacity="0.7" d="M2.26697 264.5C2.26697 264.5 61.8288 47.1462 217.608 46.713C373.387 46.2797 375.178 127.072 527.376 192.056C679.574 257.041 949.948 253.528 1073.5 162.198C1197.05 70.868 1223.91 130.583 1327.76 183.275C1431.61 235.966 1565.9 256.151 1680.5 210.048C1795.09 163.946 1825.53 113.882 1827.33 46.7081C1829.12 -20.4662 1859.56 4.55143 1859.56 4.55143V264.49H2.26697V264.5Z" fill="url(#paint1_linear_45_2)"/>
<path opacity="0.7" d="M0 264.504C0 264.504 290.226 116.775 463.912 125.557C637.598 134.339 700.584 246.936 786.211 250.257C871.837 253.578 1311.48 271.717 1398.9 229.373C1486.33 187.028 1547.2 127.312 1660.01 125.556C1772.81 123.8 1860.87 176.49 1862.34 209.861C1863.81 243.232 1862.34 264.499 1862.34 264.499L0 264.504Z" fill="url(#paint2_linear_45_2)"/>
<path opacity="0.7" d="M2.4646 264.5C2.4646 264.5 158.158 255.046 202.425 245.995C246.691 236.943 437.492 204.762 492.443 197.722C547.395 190.682 612.487 161.602 684.802 158.054C757.118 154.506 869.21 220.187 932.487 220.187C995.764 220.187 1087.97 172.256 1167.52 172.256C1247.06 172.256 1331.55 218.107 1396.08 229.904C1460.6 241.701 1668.49 262.665 1668.49 262.665L2.4646 264.5Z" fill="url(#paint3_linear_45_2)"/>
<path opacity="0.7" d="M0.992554 155.709C0.992554 155.709 113.362 160.418 182.711 171.708C225.026 177.458 300.162 189.933 395.098 193.817C499.981 198.671 633.473 129.648 796.484 129.648C1052.1 132.825 1236.87 243.82 1413.18 241.878C1589.49 239.935 1817.53 117.026 1835.6 117.572C1853.66 118.117 1859.22 128.749 1858.94 138.837C1858.67 148.924 1856.47 264.498 1856.47 264.498H0.992554V155.709Z" fill="url(#paint4_linear_45_2)"/>
<path opacity="0.7" d="M1860.73 264.5C1860.73 264.5 1801.17 481.854 1645.39 482.287C1489.61 482.72 1487.82 401.928 1335.62 336.943C1183.43 271.959 913.052 275.471 789.502 366.802C665.953 458.132 639.095 398.415 535.242 345.725C431.389 293.035 297.097 272.849 182.501 318.951C67.9054 365.054 37.4654 415.117 35.6748 482.292C33.8842 549.466 3.44421 524.448 3.44421 524.448V264.5H1860.73Z" fill="url(#paint5_linear_45_2)"/>
<path opacity="0.7" d="M1863 264.502C1863 264.502 1572.77 412.227 1399.09 403.445C1225.4 394.663 1162.41 282.065 1076.79 278.745C991.156 275.425 551.52 257.285 464.095 299.629C376.669 341.974 315.794 401.687 202.988 403.443C90.1824 405.199 2.13 352.509 0.655046 319.138C-0.819906 285.767 0.655046 264.5 0.655046 264.5L1863 264.502Z" fill="url(#paint6_linear_45_2)"/>
<path opacity="0.7" d="M1860.53 264.5C1860.53 264.5 1704.84 273.954 1660.57 283.005C1616.31 292.057 1425.51 324.238 1370.56 331.278C1315.6 338.318 1250.51 367.399 1178.2 370.946C1105.88 374.494 993.789 308.813 930.512 308.813C867.235 308.813 775.031 356.744 695.482 356.744C615.933 356.744 531.446 310.894 466.92 299.096C402.395 287.298 194.515 266.334 194.515 266.334L1860.53 264.5Z" fill="url(#paint7_linear_45_2)"/>
</g>
<defs>
<linearGradient id="paint0_linear_45_2" x1="13.127" y1="401.144" x2="37.8982" y2="109.247" gradientUnits="userSpaceOnUse">
<stop stop-color="#FF4F00"/>
<stop offset="1" stop-color="#F33D6E"/>
</linearGradient>
<linearGradient id="paint1_linear_45_2" x1="20.8398" y1="-0.00759687" x2="93.2451" y2="513.535" gradientUnits="userSpaceOnUse">
<stop stop-color="#F33D6E"/>
<stop offset="1" stop-color="#AD009F"/>
</linearGradient>
<linearGradient id="paint2_linear_45_2" x1="4.09896e-05" y1="61.9276" x2="15.3072" y2="359.537" gradientUnits="userSpaceOnUse">
<stop stop-color="#960028"/>
<stop offset="1" stop-color="#E7003E"/>
</linearGradient>
<linearGradient id="paint3_linear_45_2" x1="2.46468" y1="68.1704" x2="12.8666" y2="336.292" gradientUnits="userSpaceOnUse">
<stop stop-color="#A63400"/>
<stop offset="1" stop-color="#960028"/>
</linearGradient>
<linearGradient id="paint4_linear_45_2" x1="1858.95" y1="15.8954" x2="1843.07" y2="346.054" gradientUnits="userSpaceOnUse">
<stop stop-color="#960028"/>
<stop offset="1" stop-color="#D636C9"/>
</linearGradient>
<linearGradient id="paint5_linear_45_2" x1="3.44423" y1="448.333" x2="127.479" y2="-107.324" gradientUnits="userSpaceOnUse">
<stop stop-color="#FF4F00"/>
<stop offset="1" stop-color="#710067"/>
</linearGradient>
<linearGradient id="paint6_linear_45_2" x1="9.31448" y1="264.5" x2="29.8312" y2="540.227" gradientUnits="userSpaceOnUse">
<stop stop-color="#960028"/>
<stop offset="1" stop-color="#D636C9"/>
</linearGradient>
<linearGradient id="paint7_linear_45_2" x1="194.515" y1="397.731" x2="193.988" y2="263.997" gradientUnits="userSpaceOnUse">
<stop stop-color="#960028"/>
<stop offset="1" stop-color="#D636C9"/>
</linearGradient>
<clipPath id="clip0_45_2">
<rect width="1863" height="529" fill="white"/>
</clipPath>
</defs>
</svg>
