<svg width="1863" height="424" viewBox="0 0 1863 424" fill="none" xmlns="http://www.w3.org/2000/svg">
<g clip-path="url(#clip0_46_2)">
<path opacity="0.7" d="M-9.05396 86.4261C-9.05396 86.4261 117.236 -3.67397 243.556 0.116026C369.876 3.90603 610.104 118.765 682.992 130.425C755.88 142.085 1067.73 253.44 1213.6 130.425C1359.47 7.40999 1508.99 178.681 1616.57 130.425C1724.14 82.169 1862.54 124.193 1862.84 140.785C1863.14 157.377 1862.92 228.724 1862.92 228.724L-9.05396 228.594V86.4261Z" fill="url(#paint0_linear_46_2)"/>
<path opacity="0.7" d="M1858.76 370.303C1858.76 370.303 1722.28 423.032 1600.36 423.032C1478.45 423.032 1238.43 338.553 1165.54 326.894C1092.65 315.235 780.805 203.879 634.934 326.894C489.063 449.909 311.385 289.951 231.966 326.894C152.547 363.837 -13.378 370.484 -12.997 316.76C-12.616 263.036 -12.997 228.724 -12.997 228.724H1857.58L1858.76 370.303Z" fill="url(#paint1_linear_46_2)"/>
<path opacity="0.7" d="M-13 114.202C-13 114.202 100.211 119.038 170.08 130.634C212.712 136.54 288.41 149.354 384.058 153.343C489.726 158.329 624.218 87.434 788.45 87.434C1045.98 90.697 1232.14 204.702 1409.77 202.707C1587.4 200.712 1817.14 74.4701 1835.35 75.0301C1853.55 75.5901 1859.15 86.511 1858.87 96.872C1858.59 107.233 1856.37 225.941 1856.37 225.941H-13V114.202Z" fill="url(#paint2_linear_46_2)"/>
<path opacity="0.7" d="M1859.05 339.568C1859.05 339.568 1743.75 335.629 1673.88 324.033C1631.25 318.127 1555.55 305.313 1459.9 301.324C1354.23 296.338 1219.74 367.233 1055.51 367.233C797.977 363.97 611.823 249.965 434.191 251.96C256.559 253.955 -13.18 407.134 -13 381.387C-12.82 355.64 -13 358.062 -13 358.062L-12.415 228.725L1859.05 228.884V339.568Z" fill="url(#paint3_linear_46_2)"/>
<path opacity="0.7" d="M-9.05396 209.782C-9.05396 209.782 199.795 93.2411 309.198 98.7091C418.601 104.177 518.267 167.825 518.267 167.825C518.267 167.825 677.68 224.057 702.275 231.392C726.87 238.727 1251.57 231.392 1251.57 231.392C1251.57 231.392 1388.21 208.166 1478.39 209.999C1568.57 211.832 1672.42 219.167 1722.52 231.392C1772.62 243.617 1714.32 231.392 1714.32 231.392H-9.05396V209.782Z" fill="url(#paint4_linear_46_2)"/>
<path opacity="0.7" d="M1858.88 253.424C1858.88 253.424 1648.21 370.138 1538.8 364.668C1429.4 359.198 1329.73 295.551 1329.73 295.551C1329.73 295.551 1170.32 239.319 1145.73 231.984C1121.13 224.649 596.435 231.984 596.435 231.984C596.435 231.984 459.795 255.21 369.613 253.377C279.431 251.544 138.118 240.228 131.624 237.777C125.13 235.326 133.462 235.594 133.462 235.594L1858.88 232.236V253.424Z" fill="url(#paint5_linear_46_2)"/>
<path opacity="0.7" d="M180.5 228.724C180.5 228.724 337.36 219.014 381.958 209.717C426.556 200.42 618.786 167.366 674.149 160.135C729.512 152.904 795.092 123.035 867.949 119.391C940.806 115.747 1053.74 183.209 1117.49 183.209C1181.24 183.209 1274.13 133.978 1354.28 133.978C1434.42 133.978 1519.54 181.073 1584.55 193.19C1649.56 205.307 1859 226.839 1859 226.839L180.5 228.724Z" fill="url(#paint6_linear_46_2)"/>
<path opacity="0.7" d="M1671.85 225.943C1671.85 225.943 1506.42 236.889 1461.78 246.185C1417.13 255.481 1224.7 288.537 1169.28 295.767C1113.86 302.997 1048.21 332.867 975.271 336.511C902.335 340.155 789.286 272.692 725.471 272.692C661.656 272.692 568.66 321.924 488.431 321.924C408.202 321.924 293.965 266.136 236.998 267.118C180.031 268.1 -12.999 229.285 -12.999 229.285L1671.85 225.943Z" fill="url(#paint7_linear_46_2)"/>
</g>
<defs>
<linearGradient id="paint0_linear_46_2" x1="1863" y1="228.724" x2="1799.94" y2="-223.886" gradientUnits="userSpaceOnUse">
<stop stop-color="#F33D6E"/>
<stop offset="1" stop-color="#AD009F"/>
</linearGradient>
<linearGradient id="paint1_linear_46_2" x1="-12.9977" y1="228.724" x2="5.71992" y2="228.724" gradientUnits="userSpaceOnUse">
<stop stop-color="#F33D6E"/>
<stop offset="1" stop-color="#AD009F"/>
</linearGradient>
<linearGradient id="paint2_linear_46_2" x1="-1.76875" y1="109.738" x2="30.1331" y2="416.267" gradientUnits="userSpaceOnUse">
<stop stop-color="#FF4F00"/>
<stop offset="1" stop-color="#710067"/>
</linearGradient>
<linearGradient id="paint3_linear_46_2" x1="-13.0001" y1="368.901" x2="15.6126" y2="58.6918" gradientUnits="userSpaceOnUse">
<stop stop-color="#FF4F00"/>
<stop offset="1" stop-color="#710067"/>
</linearGradient>
<linearGradient id="paint4_linear_46_2" x1="1860.22" y1="62.9786" x2="1838.93" y2="357.741" gradientUnits="userSpaceOnUse">
<stop stop-color="#960028"/>
<stop offset="1" stop-color="#E7003E"/>
</linearGradient>
<linearGradient id="paint5_linear_46_2" x1="1858.88" y1="242.745" x2="1835.49" y2="534.15" gradientUnits="userSpaceOnUse">
<stop stop-color="#960028"/>
<stop offset="1" stop-color="#E7003E"/>
</linearGradient>
<linearGradient id="paint6_linear_46_2" x1="-5.81351" y1="101.951" x2="9.36179" y2="344.465" gradientUnits="userSpaceOnUse">
<stop stop-color="#960028"/>
<stop offset="1" stop-color="#D636C9"/>
</linearGradient>
<linearGradient id="paint7_linear_46_2" x1="-12.999" y1="225.943" x2="-1.76147" y2="495.793" gradientUnits="userSpaceOnUse">
<stop stop-color="#960028"/>
<stop offset="1" stop-color="#D636C9"/>
</linearGradient>
<clipPath id="clip0_46_2">
<rect width="1876" height="423.032" fill="white" transform="translate(-13)"/>
</clipPath>
</defs>
</svg>
